<?xml version="1.0" standalone="no"?>
<!DOCTYPE svg PUBLIC "-//W3C//DTD SVG 20010904//EN"
 "http://www.w3.org/TR/2001/REC-SVG-20010904/DTD/svg10.dtd">
<svg version="1.0" xmlns="http://www.w3.org/2000/svg"
 width="1024.000000pt" height="1024.000000pt" viewBox="0 0 1024.000000 1024.000000"
 preserveAspectRatio="xMidYMid meet">
<metadata>
Created by potrace 1.14, written by Peter Selinger 2001-2017
</metadata>
<g transform="translate(0.000000,1024.000000) scale(0.100000,-0.100000)"
fill="#000000" stroke="none">
<path d="M4255 10220 c-246 -46 -281 -53 -291 -61 -6 -5 -14 -6 -17 -3 -3 3
-12 2 -19 -2 -16 -10 -37 -15 -60 -15 -10 0 -20 -4 -23 -9 -3 -5 -12 -7 -20
-3 -8 3 -15 0 -15 -7 0 -6 -5 -8 -10 -5 -6 4 -17 1 -25 -5 -8 -6 -18 -9 -24
-6 -5 4 -20 2 -33 -3 -38 -15 -63 -24 -70 -25 -3 -1 -9 -4 -13 -8 -4 -4 -13
-4 -20 -2 -7 3 -16 1 -19 -5 -4 -6 -13 -8 -21 -4 -8 3 -15 0 -15 -6 0 -6 -7
-8 -15 -5 -8 4 -15 1 -15 -5 0 -6 -7 -8 -15 -5 -8 4 -15 1 -15 -5 0 -6 -7 -8
-15 -5 -8 4 -15 1 -15 -5 0 -6 -7 -8 -15 -5 -8 4 -15 1 -15 -5 0 -6 -3 -10 -7
-9 -5 1 -18 -3 -30 -10 -13 -7 -23 -10 -23 -7 0 3 -12 -1 -27 -8 -16 -8 -34
-12 -40 -10 -7 3 -13 0 -13 -7 0 -6 -4 -8 -10 -5 -5 3 -10 1 -10 -5 0 -7 -7
-10 -15 -6 -8 3 -15 1 -15 -5 0 -6 -4 -8 -9 -5 -5 4 -11 1 -13 -4 -2 -6 -13
-12 -26 -13 -12 0 -22 -5 -22 -10 0 -4 -5 -5 -10 -2 -6 3 -17 -1 -26 -9 -14
-14 -35 -21 -56 -17 -5 0 -8 -3 -8 -8 0 -10 -69 -37 -82 -33 -5 1 -8 -3 -8 -9
0 -5 -4 -7 -10 -4 -5 3 -10 1 -10 -5 0 -6 -4 -8 -10 -5 -5 3 -10 2 -10 -3 0
-13 -50 -33 -62 -26 -7 5 -8 2 -3 -6 5 -8 3 -11 -6 -8 -8 3 -19 -1 -24 -9 -6
-8 -20 -15 -32 -16 -12 0 -19 -5 -16 -11 4 -6 -1 -6 -13 -2 -10 4 -15 4 -11 0
8 -8 -114 -74 -125 -68 -5 3 -8 1 -8 -5 0 -13 -55 -42 -64 -34 -3 4 -6 0 -6
-7 0 -7 -3 -10 -7 -7 -3 4 -11 0 -17 -8 -6 -7 -17 -15 -25 -17 -8 -2 -23 -10
-33 -18 -10 -8 -22 -15 -26 -14 -4 0 -16 -8 -26 -18 -10 -9 -23 -15 -28 -12
-4 3 -8 1 -8 -4 0 -12 -50 -45 -67 -45 -7 0 -15 -7 -17 -14 -3 -8 -10 -12 -15
-9 -5 3 -12 -1 -15 -10 -3 -8 -10 -13 -15 -10 -5 3 -12 -1 -15 -10 -3 -8 -10
-13 -15 -10 -5 3 -12 -1 -15 -10 -4 -9 -9 -14 -12 -11 -3 2 -16 -6 -30 -20
-13 -13 -29 -21 -36 -17 -6 4 -8 3 -5 -3 6 -10 -52 -50 -66 -45 -5 1 -6 -1 -4
-5 3 -5 -7 -17 -21 -27 -14 -11 -22 -14 -17 -6 4 7 -11 -6 -35 -29 -23 -22
-47 -38 -53 -34 -5 3 -7 1 -4 -4 7 -11 -20 -28 -36 -24 -5 1 -6 -3 -2 -8 5 -9
-29 -35 -47 -36 -3 0 -10 -4 -15 -9 -5 -5 -2 -6 7 -1 16 9 14 6 -40 -40 -19
-17 -30 -23 -25 -15 6 9 -3 1 -18 -17 -16 -18 -34 -30 -40 -26 -5 3 -7 2 -4
-4 6 -10 -82 -90 -95 -85 -5 1 -7 -1 -6 -5 4 -12 -285 -297 -297 -294 -5 1 -7
-1 -3 -5 9 -8 -61 -89 -77 -89 -5 0 -10 -5 -10 -10 0 -6 -13 -26 -29 -45 -15
-19 -25 -28 -20 -20 4 9 3 12 -2 7 -5 -5 -9 -12 -9 -15 -1 -18 -38 -61 -48
-55 -5 3 -7 2 -4 -3 6 -10 -119 -176 -156 -207 -12 -10 -15 -16 -7 -12 8 4 4
-3 -10 -15 -14 -12 -24 -25 -24 -29 3 -15 -9 -30 -19 -24 -6 3 -7 1 -3 -5 4
-7 -4 -23 -17 -36 -14 -14 -22 -27 -20 -30 3 -3 -2 -8 -11 -12 -9 -3 -13 -10
-10 -15 3 -5 -2 -12 -10 -15 -9 -3 -13 -10 -10 -15 3 -5 -2 -12 -10 -15 -9 -3
-14 -10 -11 -14 3 -5 -1 -12 -9 -17 -8 -4 -15 -11 -15 -16 -1 -17 -32 -67 -42
-67 -6 0 -7 -5 -4 -10 3 -6 -1 -13 -9 -16 -9 -3 -13 -10 -10 -15 3 -5 0 -9 -6
-9 -6 0 -8 -5 -5 -10 3 -6 -1 -13 -9 -16 -9 -3 -13 -10 -10 -15 3 -5 0 -9 -6
-9 -6 0 -8 -5 -5 -10 3 -6 -1 -13 -9 -16 -9 -3 -13 -10 -10 -15 3 -5 0 -9 -6
-9 -6 0 -9 -4 -5 -10 3 -5 -3 -18 -14 -29 -11 -11 -17 -22 -13 -25 3 -3 0 -6
-7 -6 -7 0 -9 -4 -6 -10 3 -5 1 -10 -6 -10 -7 0 -9 -3 -6 -6 8 -8 -24 -64 -36
-64 -4 0 -5 -4 -2 -10 3 -5 1 -10 -5 -10 -6 0 -8 -4 -5 -10 3 -5 1 -10 -5 -10
-6 0 -8 -4 -5 -10 3 -5 1 -10 -5 -10 -6 0 -8 -4 -5 -10 3 -5 1 -10 -5 -10 -6
0 -8 -4 -5 -10 3 -6 1 -10 -5 -10 -6 0 -8 -4 -5 -10 3 -5 1 -10 -5 -10 -6 0
-8 -4 -5 -10 3 -5 1 -10 -5 -10 -6 0 -8 -4 -5 -10 3 -5 1 -10 -5 -10 -6 0 -8
-4 -5 -10 3 -5 1 -10 -5 -10 -6 0 -8 -4 -5 -10 3 -5 1 -10 -5 -10 -7 0 -10 -7
-6 -15 3 -8 -1 -21 -9 -29 -8 -7 -11 -16 -8 -20 4 -3 1 -6 -6 -6 -7 0 -9 -4
-6 -10 3 -5 1 -10 -5 -10 -6 0 -8 -4 -5 -10 3 -5 1 -10 -6 -10 -7 0 -9 -3 -6
-6 3 -4 1 -16 -5 -28 -7 -11 -11 -24 -10 -28 1 -5 -2 -8 -6 -8 -4 0 -9 -10 -9
-22 -1 -13 -7 -24 -13 -26 -5 -2 -8 -8 -4 -13 3 -5 0 -9 -6 -9 -7 0 -10 -7 -6
-15 3 -8 1 -15 -5 -15 -6 0 -8 -4 -5 -9 4 -5 2 -11 -4 -13 -5 -1 -11 -14 -14
-28 -2 -14 -5 -26 -7 -27 -1 -2 -2 -6 -4 -10 -14 -52 -19 -63 -27 -63 -6 0 -8
-6 -5 -14 3 -8 3 -16 -1 -18 -9 -4 -73 -191 -75 -218 -1 -11 -5 -20 -10 -20
-5 0 -7 -6 -4 -14 3 -8 2 -16 -2 -18 -13 -5 -99 -353 -132 -533 -57 -312 -59
-340 -59 -950 0 -514 2 -584 20 -709 27 -193 55 -334 101 -525 277 -1136 927
-2139 1852 -2859 693 -539 1516 -891 2387 -1022 124 -18 185 -20 752 -20 568
0 628 2 755 20 1322 194 2526 908 3337 1980 528 697 872 1515 995 2365 39 272
43 346 39 825 -5 507 -11 581 -78 925 -338 1722 -1522 3156 -3141 3803 -308
123 -617 213 -970 284 l-164 33 -765 2 c-707 1 -773 0 -865 -17z m1403 -115
c1018 -117 1934 -516 2703 -1176 883 -758 1482 -1819 1673 -2966 54 -319 61
-412 61 -828 0 -409 -6 -496 -50 -788 -107 -694 -366 -1370 -753 -1962 -497
-762 -1174 -1361 -1987 -1760 -573 -282 -1139 -438 -1800 -495 -170 -15 -592
-15 -775 -1 -502 41 -1005 158 -1465 341 -278 110 -668 317 -925 490 -624 420
-1178 1015 -1550 1665 -90 156 -249 486 -313 650 -161 410 -267 834 -323 1300
-23 188 -27 874 -6 1045 55 455 115 729 237 1095 247 742 656 1405 1210 1959
738 739 1695 1230 2717 1396 416 67 947 81 1346 35z"/>
<path d="M4337 9097 c-19 -19 -58 -47 -87 -62 -120 -61 -216 -132 -295 -219
-44 -49 -96 -99 -115 -112 -65 -44 -172 -158 -192 -204 -11 -25 -28 -81 -39
-125 -25 -102 -50 -160 -110 -260 -38 -63 -50 -96 -60 -155 -12 -76 -12 -76
21 -365 16 -139 52 -263 106 -365 13 -25 37 -79 54 -120 45 -112 112 -237 140
-264 14 -13 43 -36 65 -51 22 -14 75 -59 118 -98 44 -40 86 -76 94 -81 75 -42
303 -100 443 -112 56 -5 187 -28 363 -64 27 -6 71 -10 98 -10 l49 0 0 -77 c0
-70 -4 -84 -45 -167 -24 -50 -49 -113 -56 -141 -6 -27 -20 -77 -31 -110 -11
-33 -25 -77 -31 -97 -11 -37 -13 -38 -57 -39 -75 -1 -104 -6 -138 -23 -20 -10
-30 -21 -26 -29 4 -7 3 -8 -1 -4 -9 8 -135 -110 -135 -126 0 -4 4 -6 9 -2 5 3
13 1 16 -5 4 -6 1 -9 -7 -8 -7 2 -12 -3 -10 -10 1 -8 -2 -11 -8 -7 -6 3 -7 12
-3 18 3 7 -3 3 -16 -7 -16 -15 -19 -22 -9 -29 9 -6 8 -7 -4 -4 -19 6 -42 -15
-30 -28 4 -5 2 -5 -4 -2 -14 8 -37 -17 -26 -28 4 -5 2 -5 -4 -2 -14 8 -48 -28
-40 -42 4 -6 14 -8 24 -5 14 5 15 4 2 -5 -9 -6 -18 -7 -24 -1 -16 16 -29 11
-22 -7 4 -10 4 -15 1 -11 -10 9 -45 -24 -38 -35 3 -6 1 -7 -4 -4 -13 8 -179
-170 -175 -187 2 -6 0 -8 -4 -3 -8 8 -54 -30 -54 -45 0 -5 4 -7 9 -4 5 3 14
-1 21 -9 7 -8 11 -15 9 -16 -26 -5 -51 -7 -41 -3 6 3 10 10 6 15 -8 13 -24 11
-24 -4 0 -7 -9 -18 -20 -25 -12 -7 -18 -17 -15 -22 3 -5 0 -12 -6 -16 -8 -5
-10 -2 -4 7 4 8 -7 -1 -25 -19 -17 -18 -33 -40 -34 -49 -2 -10 -9 -19 -17 -21
-11 -3 -11 -1 1 8 13 10 12 11 -3 6 -10 -3 -21 -6 -23 -6 -3 0 -3 -4 0 -8 3
-5 -16 -7 -42 -6 -25 2 -52 -2 -58 -7 -8 -6 -11 -4 -11 8 0 10 -1 404 -2 876
l-1 857 -215 0 -215 0 2 -1507 3 -1508 213 0 213 0 0 483 c-1 531 -6 488 58
482 17 -1 21 2 15 12 -7 11 -5 11 9 0 9 -8 25 -11 38 -7 14 5 19 4 15 -4 -7
-10 6 -16 27 -12 5 1 11 -8 14 -19 6 -23 14 -25 30 -9 8 8 13 7 18 -2 5 -7 4
-10 -3 -5 -6 3 -13 2 -17 -4 -5 -9 119 -180 131 -180 3 0 2 6 -2 13 -4 6 2 3
14 -7 25 -21 31 -36 7 -16 -23 19 -18 -4 6 -26 12 -10 24 -19 27 -19 4 0 7 -5
7 -11 0 -11 39 -63 126 -164 l21 -25 -17 30 -18 30 22 -19 c12 -11 19 -26 16
-34 -7 -18 24 -54 38 -45 5 3 7 1 3 -5 -3 -6 -2 -13 3 -17 5 -3 14 3 20 12 6
10 11 13 11 8 0 -6 -6 -17 -12 -24 -11 -10 -9 -15 6 -27 11 -8 16 -14 11 -14
-5 0 4 -13 19 -29 27 -28 27 -29 15 -97 -24 -146 -130 -498 -176 -583 -36 -69
-27 -122 24 -142 66 -25 114 39 175 231 75 238 98 315 104 348 4 18 16 37 27
43 14 8 17 8 13 0 -9 -14 23 -63 37 -54 6 3 7 1 3 -5 -7 -12 25 -46 69 -70 24
-14 65 -17 219 -20 105 -1 192 -5 195 -7 10 -11 3 -124 -13 -174 -9 -30 -16
-80 -16 -110 0 -61 -24 -223 -36 -242 -4 -7 -11 -109 -16 -228 -11 -289 -21
-406 -47 -526 -12 -55 -26 -125 -31 -155 -9 -56 -33 -150 -75 -295 -13 -44
-40 -152 -59 -240 -20 -88 -61 -232 -91 -320 -73 -210 -72 -205 -90 -385 -9
-86 -22 -167 -31 -182 -21 -39 -17 -66 15 -99 35 -35 86 -39 123 -10 66 52
149 338 163 561 4 58 13 127 21 154 8 27 14 66 14 85 0 20 11 61 24 91 13 30
42 99 64 152 27 62 49 136 61 205 11 60 24 120 30 134 24 56 50 180 55 264 4
50 13 113 22 140 10 36 16 118 20 285 5 198 10 252 30 342 13 59 24 139 24
179 0 42 4 69 9 64 4 -6 23 -67 40 -137 17 -69 38 -139 46 -155 8 -15 15 -50
15 -76 0 -68 80 -322 162 -517 16 -40 63 -177 93 -275 15 -49 34 -106 42 -125
9 -19 22 -60 30 -90 16 -61 39 -117 124 -300 57 -123 83 -201 118 -351 31
-130 82 -271 126 -349 23 -41 45 -84 49 -95 7 -23 54 -55 80 -55 28 0 66 46
66 80 0 30 -35 110 -70 160 -24 34 -84 219 -100 305 -7 39 -18 81 -25 95 -7
14 -16 41 -20 60 -7 35 -40 114 -100 245 -75 161 -72 154 -155 415 -29 91 -79
237 -112 325 -90 240 -94 252 -127 355 -16 52 -33 115 -37 140 -6 46 -40 183
-70 287 -22 77 -105 239 -149 290 l-35 41 0 204 c0 141 5 224 15 273 8 38 15
92 15 120 0 32 3 45 9 36 7 -11 10 -11 15 0 3 8 3 3 0 -9 -6 -26 34 -117 94
-212 46 -71 219 -243 239 -236 8 3 11 1 8 -4 -3 -5 6 -12 20 -16 13 -3 23 -10
20 -14 -10 -15 141 -74 260 -101 68 -16 368 -19 400 -4 24 10 52 16 83 17 12
0 22 4 22 9 0 5 4 9 10 9 13 0 54 -72 90 -160 17 -41 39 -84 50 -94 42 -43
121 -10 122 50 0 34 -60 180 -106 257 -20 33 -28 54 -20 54 7 0 13 -3 12 -6
-2 -20 4 -31 15 -28 6 1 11 -4 10 -10 -4 -20 6 -16 34 15 15 15 23 21 18 13
-5 -9 -3 -12 6 -9 8 3 13 10 12 16 -2 6 3 9 10 7 15 -6 83 51 79 66 -1 6 2 8
8 4 5 -3 26 10 46 30 27 27 33 39 25 49 -8 9 -7 13 4 13 8 0 12 -5 9 -11 -3
-6 4 0 15 12 16 19 19 28 10 44 -10 19 -11 19 -32 1 l-22 -18 19 22 c18 21 18
23 -5 55 -30 42 -45 58 -51 52 -3 -2 -13 6 -24 18 l-19 23 23 -19 c12 -11 22
-14 22 -7 0 21 -63 51 -102 49 -32 -2 -35 -4 -25 -17 10 -12 9 -13 -9 -3 -16
9 -26 8 -43 -4 -12 -9 -19 -20 -15 -25 3 -5 0 -8 -8 -7 -7 2 -12 -3 -10 -10 1
-8 -2 -11 -8 -7 -13 8 -62 -30 -52 -40 4 -5 1 -5 -5 -1 -13 7 -57 -16 -48 -25
2 -3 -10 -5 -27 -4 -27 0 -35 6 -52 41 -12 23 -27 48 -35 57 -56 68 -166 266
-211 381 -69 175 -97 242 -128 296 -52 93 -157 247 -213 317 -33 39 -59 75
-59 79 0 4 12 23 28 43 15 20 27 43 27 51 0 9 8 14 18 12 9 -2 17 1 17 5 0 5
18 19 40 33 33 20 37 27 27 40 -10 13 -10 13 4 2 13 -10 24 -9 58 6 22 10 39
21 37 23 -7 7 77 12 202 12 156 0 216 -4 201 -13 -7 -5 4 -13 27 -20 37 -12
93 -39 104 -50 17 -18 63 -40 82 -40 19 0 20 -2 8 -10 -12 -8 -11 -10 8 -11
73 -5 86 -1 121 33 17 17 29 37 27 45 -3 8 -2 12 2 9 4 -2 27 23 49 56 52 76
59 64 -104 196 -15 12 -34 20 -41 17 -7 -3 -10 0 -7 5 7 12 -114 72 -128 63
-6 -4 -7 -1 -2 7 6 10 3 12 -13 8 -12 -4 -20 -3 -17 2 6 10 -77 32 -183 48
-62 9 -296 9 -345 -1 -21 -5 -35 -12 -32 -17 3 -5 0 -12 -6 -16 -7 -4 -9 -3
-5 4 3 6 2 13 -3 16 -11 7 -109 -21 -138 -40 -13 -8 -23 -12 -23 -10 0 8 -105
-41 -159 -74 -28 -18 -49 -36 -45 -41 3 -5 -2 -9 -11 -9 -10 0 -13 -5 -9 -12
5 -8 2 -9 -10 -5 -13 5 -17 3 -13 -7 4 -9 1 -13 -7 -10 -7 3 -21 -5 -32 -17
-12 -14 -13 -19 -4 -14 8 4 12 5 8 0 -4 -4 -3 -14 4 -22 9 -11 14 -11 28 2 16
14 17 14 16 -7 -1 -13 4 -25 9 -26 6 -2 17 -8 26 -13 10 -5 21 -4 28 4 10 9
11 8 6 -5 -4 -9 -1 -26 5 -38 8 -15 9 -25 2 -32 -6 -6 -8 -18 -5 -27 5 -13 3
-14 -8 -3 -10 9 -10 15 -1 24 17 17 15 33 -2 19 -20 -17 -89 43 -81 70 4 13 2
17 -7 14 -37 -14 -207 200 -268 337 -26 60 -60 193 -60 240 0 42 -40 98 -70
98 -15 0 -19 12 -25 74 -4 41 -4 92 0 114 l6 40 72 11 c120 19 181 39 297 100
30 15 69 31 85 35 17 4 55 18 85 31 30 12 73 28 96 34 56 15 130 83 159 145
13 28 31 62 39 76 8 14 28 55 45 93 17 38 51 90 79 120 73 78 120 143 132 185
7 20 16 82 21 137 18 216 39 507 45 636 6 131 6 138 -18 190 -14 30 -41 75
-61 101 -40 52 -67 101 -97 178 -29 74 -91 161 -173 243 -106 105 -136 124
-382 232 -16 7 -64 29 -105 48 -70 33 -115 48 -215 75 -22 6 -155 14 -295 17
-140 3 -330 8 -422 11 l-168 7 -33 -36z m906 -158 c49 -11 110 -31 135 -45 58
-30 169 -79 202 -89 83 -25 220 -115 286 -188 56 -62 111 -147 129 -197 19
-55 61 -134 88 -166 78 -95 86 -132 67 -321 -13 -130 -30 -340 -40 -489 -5
-74 -13 -132 -23 -150 -8 -16 -45 -62 -81 -101 -46 -50 -81 -102 -117 -173
-30 -59 -63 -110 -80 -122 -15 -11 -42 -40 -59 -65 -35 -48 -110 -91 -195
-112 -27 -7 -66 -22 -85 -34 -104 -65 -264 -106 -411 -107 -96 0 -268 23 -384
51 -114 28 -185 40 -256 43 -58 3 -165 46 -224 90 -16 13 -49 33 -72 44 -23
12 -75 52 -116 89 -41 38 -90 77 -108 88 -54 33 -120 132 -160 242 -12 32 -25
63 -29 68 -5 6 -20 42 -35 80 -26 67 -27 75 -20 200 3 72 11 153 16 180 6 28
14 129 18 225 5 133 11 183 24 207 9 17 26 70 37 118 11 47 26 100 34 118 14
35 85 111 145 155 20 14 83 74 141 132 116 117 189 164 313 200 39 11 86 26
102 31 70 25 104 27 380 22 240 -4 305 -8 378 -24z m-1136 -2161 c59 -61 18
-44 -45 18 -45 45 -50 53 -24 38 18 -10 49 -36 69 -56z m1137 -1123 c13 -16
33 -49 44 -71 12 -23 60 -81 107 -128 48 -47 83 -90 80 -96 -4 -6 -11 -8 -16
-4 -5 3 -7 9 -4 13 2 5 -6 18 -19 30 l-23 22 -15 -23 c-28 -43 -77 -153 -101
-228 -40 -121 -57 -250 -59 -445 -1 -54 -3 -64 -10 -45 -11 29 -23 131 -58
503 -5 56 -17 149 -27 207 -19 109 -25 377 -10 414 6 16 14 8 48 -50 22 -38
51 -82 63 -99z m-477 53 c-3 -7 -5 -2 -5 12 0 14 2 19 5 13 2 -7 2 -19 0 -25z
m1002 8 c-2 -2 -15 -9 -29 -15 -24 -11 -24 -11 -6 3 16 13 49 24 35 12z
m-1195 -27 c-3 -5 -10 -7 -15 -3 -5 3 -7 10 -3 15 3 5 10 7 15 3 5 -3 7 -10 3
-15z m213 -11 c-3 -8 -6 -5 -6 6 -1 11 2 17 5 13 3 -3 4 -12 1 -19z m172 -84
c1 -33 10 -103 20 -155 11 -52 25 -148 31 -214 6 -66 15 -150 20 -187 6 -37
10 -85 10 -107 0 -70 28 -243 66 -416 30 -134 41 -295 25 -358 -5 -23 -13
-129 -17 -235 -6 -171 -9 -190 -21 -172 -11 16 -18 18 -28 10 -10 -8 -15 -8
-21 1 -4 7 -3 9 4 5 16 -10 25 11 13 31 -6 10 -11 14 -11 8 0 -9 -35 35 -35
45 -1 15 -88 120 -95 115 -6 -3 -7 0 -4 8 3 8 0 18 -7 23 -8 5 -10 3 -4 -6 5
-8 4 -11 -3 -6 -6 4 -9 12 -6 19 5 13 -32 54 -45 50 -3 -1 -5 4 -3 12 1 7 -3
17 -9 21 -7 4 -9 3 -6 -3 3 -5 0 -10 -8 -10 -11 0 -12 4 -3 14 9 11 5 20 -15
41 -15 16 -27 32 -27 36 0 5 -14 25 -30 45 -17 20 -34 41 -38 46 -31 42 -52
66 -52 60 0 -5 -2 -6 -5 -3 -3 3 -1 18 6 34 6 16 24 94 40 174 31 158 56 253
83 315 10 22 26 83 37 135 11 52 29 127 40 165 10 39 24 122 30 185 5 63 17
149 24 190 8 42 15 87 15 102 0 15 4 29 9 32 5 3 7 16 5 29 -4 20 -4 21 5 2 5
-11 10 -47 10 -81z m696 56 c-3 -5 -12 -10 -18 -10 -7 0 -6 4 3 10 19 12 23
12 15 0z m1161 -46 c1 -9 -1 -13 -4 -9 -4 4 -7 10 -7 13 0 4 -4 14 -9 22 -7
12 -6 13 4 3 8 -7 15 -20 16 -29z m-2036 4 c0 -18 -2 -20 -9 -8 -6 8 -7 18 -5
22 9 14 14 9 14 -14z m-21 -21 c0 -9 -2 -8 -6 1 -2 6 -10 9 -15 6 -7 -4 -8 -2
-4 5 9 13 26 5 25 -12z m840 -10 c-2 -2 -11 -8 -20 -15 -12 -9 -16 -9 -16 1 0
7 9 14 20 14 11 1 18 1 16 0z m-829 -19 c0 -4 -4 -8 -9 -8 -6 0 -12 4 -15 8
-3 5 1 9 9 9 8 0 15 -4 15 -9z m2135 -28 c-3 -5 -13 -6 -21 -3 -12 4 -13 8 -3
14 15 9 32 2 24 -11z m-2145 -5 c0 -8 -4 -15 -10 -15 -5 0 -7 7 -4 15 4 8 8
15 10 15 2 0 4 -7 4 -15z m-370 -41 c0 -8 -19 -13 -24 -6 -3 5 1 9 9 9 8 0 15
-2 15 -3z m1657 0 c-3 -3 -12 -4 -19 -1 -8 3 -5 6 6 6 11 1 17 -2 13 -5z
m-1302 -56 c9 -9 -16 -198 -35 -262 -10 -33 -26 -99 -35 -146 -9 -47 -28 -113
-41 -147 -30 -76 -80 -271 -90 -350 -4 -32 -9 -51 -12 -43 -9 32 -55 89 -66
83 -6 -3 -8 -3 -4 2 11 11 -11 47 -24 39 -6 -4 -8 -3 -5 3 4 6 -2 22 -14 34
-11 13 -18 19 -15 12 7 -13 -19 -12 -31 2 -4 4 -3 5 4 1 6 -3 14 -2 18 4 8 12
-44 82 -56 74 -5 -3 -7 1 -4 8 3 7 -17 37 -43 67 l-48 54 35 33 c32 29 34 33
21 50 -13 17 -13 18 0 7 13 -10 23 -3 59 35 24 26 56 61 72 78 29 30 40 56 16
35 -14 -11 -27 -5 -27 13 0 6 4 5 9 -3 6 -9 11 -10 15 -3 4 6 12 9 19 7 7 -2
45 34 85 80 53 60 71 88 66 101 -4 13 -3 15 3 6 7 -9 24 3 66 50 31 34 57 67
57 72 0 6 -9 0 -19 -13 l-18 -23 3 23 c1 13 3 25 3 26 2 3 31 -3 36 -9z m1890
-8 c3 -6 -1 -7 -9 -4 -18 7 -21 14 -7 14 6 0 13 -4 16 -10z m-2323 -22 c-15
-15 -16 -31 0 -22 7 5 8 3 3 -5 -5 -9 -10 -10 -18 -2 -10 10 6 41 21 41 3 0 1
-5 -6 -12z m359 -3 c5 4 6 -1 3 -10 -5 -11 -2 -14 12 -8 15 5 15 3 -3 -13 -13
-10 -29 -27 -36 -37 -12 -17 -13 -17 -13 2 0 11 5 19 11 18 5 -1 9 14 9 33 -1
19 1 29 3 22 3 -6 9 -10 14 -7z m-431 -39 c0 -2 -8 -10 -17 -17 -16 -13 -17
-12 -4 4 13 16 21 21 21 13z m1523 -37 c-21 -21 -21 -21 -31 -2 -8 15 -8 20 3
20 7 0 11 -7 8 -16 -3 -10 2 -9 14 5 10 12 20 20 22 18 3 -3 -5 -14 -16 -25z
m-263 -4 c13 -14 21 -25 18 -25 -2 0 -15 11 -28 25 -13 14 -21 25 -18 25 2 0
15 -11 28 -25z m-1273 -2 c-4 -3 -1 -13 5 -22 10 -13 10 -14 -1 -4 -7 6 -21 9
-30 6 -11 -4 -10 -1 4 10 20 16 34 23 22 10z m1567 -33 c-5 -5 -10 3 -11 18
-1 22 0 24 9 8 6 -10 6 -22 2 -26z m-1207 -21 c-8 -13 -13 -15 -18 -7 -10 15
-4 25 15 25 11 0 12 -4 3 -18z m1028 -46 c22 -27 32 -42 24 -36 -18 15 -30 8
-23 -12 3 -8 14 -12 25 -10 10 2 18 -1 16 -8 -1 -6 3 -11 10 -12 29 -1 18 -11
-12 -11 -18 0 -33 5 -32 11 1 5 -3 9 -8 8 -6 -1 -10 13 -10 30 2 42 -3 51 -23
35 -14 -10 -15 -10 -4 2 16 18 16 38 0 22 -7 -7 -17 -12 -22 -12 -6 0 -3 5 7
11 9 6 15 14 12 20 -15 23 4 5 40 -38z m-1474 28 c-8 -5 -10 -14 -6 -22 6 -11
5 -11 -5 -2 -14 12 -6 33 13 33 8 0 7 -3 -2 -9z m1200 -68 c-11 -16 -11 -15
-5 6 4 17 3 21 -6 16 -9 -6 -11 -4 -5 4 5 9 11 9 17 3 7 -7 6 -16 -1 -29z
m-822 10 c-7 -10 -14 -19 -15 -21 -1 -2 -4 4 -8 13 -3 9 -2 13 3 10 5 -3 12
-1 16 5 3 5 9 10 12 10 3 0 -1 -8 -8 -17z m1286 -209 c11 -18 45 -73 76 -121
31 -48 67 -115 81 -148 48 -112 96 -230 103 -255 13 -42 72 -149 140 -255 35
-55 73 -116 84 -136 19 -34 19 -35 1 -47 -11 -6 -21 -8 -24 -3 -5 8 -139 24
-199 24 -20 0 -24 2 -15 8 10 7 8 9 -7 10 -11 1 -24 3 -30 3 -16 3 -97 56
-129 85 -16 14 -26 21 -22 14 3 -6 2 -14 -3 -18 -6 -3 -8 2 -7 12 2 10 -12 36
-31 58 -25 29 -31 33 -23 15 10 -23 10 -24 -4 -6 -9 10 -13 22 -11 26 3 5 -8
35 -25 68 -64 130 -96 318 -86 507 6 120 10 154 25 210 4 17 7 40 6 52 -1 18
6 14 39 -24 23 -26 50 -61 61 -79z m-109 90 c1 -9 0 -13 -4 -10 -3 4 -7 14 -8
22 -1 9 0 13 4 10 3 -4 7 -14 8 -22z m-1422 -142 c3 -5 -1 -9 -9 -9 -8 0 -12
4 -9 9 3 4 7 8 9 8 2 0 6 -4 9 -8z m27 -149 c13 -16 12 -17 -3 -4 -10 7 -18
15 -18 17 0 8 8 3 21 -13z m49 -119 c0 -8 -19 -13 -24 -6 -3 5 1 9 9 9 8 0 15
-2 15 -3z m913 -79 c4 -8 2 -17 -3 -20 -6 -4 -10 3 -10 14 0 25 6 27 13 6z
m-1189 -23 c3 -5 -1 -9 -9 -9 -8 0 -12 4 -9 9 3 4 7 8 9 8 2 0 6 -4 9 -8z
m1193 -44 c-3 -7 -5 -2 -5 12 0 14 2 19 5 13 2 -7 2 -19 0 -25z m-760 -2 c-3
-7 -1 -18 5 -24 6 -6 6 -12 -3 -17 -7 -5 -10 -4 -5 3 3 6 2 13 -3 17 -10 5 -4
35 6 35 3 0 3 -6 0 -14z m793 -42 c0 -2 -7 -4 -15 -4 -8 0 -15 4 -15 10 0 5 7
7 15 4 8 -4 15 -8 15 -10z m-1157 -9 c-3 -9 -8 -14 -10 -11 -3 3 -2 9 2 15 9
16 15 13 8 -4z m387 -11 c0 -8 -5 -12 -10 -9 -6 4 -8 11 -5 16 9 14 15 11 15
-7z m770 -15 c0 -5 -4 -9 -10 -9 -5 0 -10 7 -10 16 0 8 5 12 10 9 6 -3 10 -10
10 -16z m-783 -31 c-3 -8 -6 -5 -6 6 -1 11 2 17 5 13 3 -3 4 -12 1 -19z m-296
-41 c-10 -9 -11 -8 -5 6 3 10 9 15 12 12 3 -3 0 -11 -7 -18z m289 7 c0 -8 -5
-12 -10 -9 -6 4 -8 11 -5 16 9 14 15 11 15 -7z m817 -6 c-3 -8 -6 -5 -6 6 -1
11 2 17 5 13 3 -3 4 -12 1 -19z m-30 -20 c-3 -7 -5 -2 -5 12 0 14 2 19 5 13 2
-7 2 -19 0 -25z m406 -3 c-3 -9 -8 -14 -10 -11 -3 3 -2 9 2 15 9 16 15 13 8
-4z m-1206 -17 c-3 -8 -6 -5 -6 6 -1 11 2 17 5 13 3 -3 4 -12 1 -19z m159 -48
c0 -12 -4 -16 -9 -11 -5 5 -6 14 -3 20 10 15 12 14 12 -9z m-189 -72 c-3 -8
-6 -5 -6 6 -1 11 2 17 5 13 3 -3 4 -12 1 -19z m1316 9 c3 -8 -1 -14 -8 -14 -7
0 -11 6 -8 14 3 7 6 13 8 13 2 0 5 -6 8 -13z m-1029 -24 c4 -10 4 -14 0 -10
-4 4 -14 1 -22 -6 -13 -11 -14 -9 -1 11 17 26 15 26 23 5z m1996 3 c0 -2 -7
-7 -16 -10 -8 -3 -12 -2 -9 4 6 10 25 14 25 6z m-2114 -23 c-3 -17 -26 -32
-26 -16 0 8 20 33 26 33 1 0 1 -8 0 -17z m-186 -43 c0 -5 -5 -10 -11 -10 -5 0
-7 5 -4 10 3 6 8 10 11 10 2 0 4 -4 4 -10z m2175 0 c3 -6 -1 -7 -9 -4 -18 7
-21 14 -7 14 6 0 13 -4 16 -10z m-695 -28 c2 -2 -9 -1 -25 2 -16 3 -35 0 -42
-6 -12 -10 -16 -7 -10 9 1 4 8 8 15 10 8 1 16 4 19 7 4 3 13 0 22 -6 9 -7 18
-14 21 -16z m-1315 8 c3 -5 1 -10 -4 -10 -6 0 -11 5 -11 10 0 6 2 10 4 10 3 0
8 -4 11 -10z m15 -25 c0 -2 -9 -9 -20 -15 -12 -6 -20 -7 -20 -1 0 5 8 12 18
14 9 3 18 5 20 6 1 0 2 -1 2 -4z m838 -51 c-4 -3 -12 5 -18 18 -12 22 -12 22
6 6 10 -10 15 -20 12 -24z m-881 -16 c-3 -7 -5 -2 -5 12 0 14 2 19 5 13 2 -7
2 -19 0 -25z m913 11 c-7 -11 -14 -18 -17 -15 -3 3 0 12 7 21 18 21 23 19 10
-6z m1005 11 c3 -5 1 -10 -4 -10 -6 0 -11 5 -11 10 0 6 2 10 4 10 3 0 8 -4 11
-10z m15 -30 c0 -5 -2 -10 -4 -10 -3 0 -8 5 -11 10 -3 6 -1 10 4 10 6 0 11 -4
11 -10z m28 -14 c-15 -30 -16 -30 -14 -3 0 13 6 24 13 24 9 0 9 -6 1 -21z
m-203 -26 c-3 -5 -12 -10 -18 -10 -7 0 -6 4 3 10 19 12 23 12 15 0z m-1768
-32 c-3 -7 -5 -2 -5 12 0 14 2 19 5 13 2 -7 2 -19 0 -25z m1786 -21 c-4 -7 1
-8 13 -3 15 6 16 5 7 -5 -9 -9 -16 -9 -26 -1 -8 7 -18 8 -22 4 -5 -4 -5 -2 -2
4 3 6 13 11 21 11 8 0 12 -5 9 -10z m271 -18 c-3 -5 -14 -5 -25 1 -23 13 -25
22 -2 13 12 -5 14 -3 8 8 -8 12 -6 12 8 0 9 -7 14 -17 11 -22z m-59 11 c-3 -5
-1 -10 6 -10 7 0 10 -3 6 -6 -9 -9 -28 6 -22 17 4 5 8 9 11 9 3 0 2 -4 -1 -10z
m-2008 -32 c-3 -7 -5 -2 -5 12 0 14 2 19 5 13 2 -7 2 -19 0 -25z m66 7 c-3 -9
-8 -14 -10 -11 -3 3 -2 9 2 15 9 16 15 13 8 -4z m1013 -16 c3 -6 -5 -3 -20 6
-14 10 -26 19 -26 22 0 7 39 -17 46 -28z m695 18 c-6 -8 -7 -18 -3 -22 4 -5 1
-5 -6 -1 -10 6 -10 11 -1 22 6 8 14 14 16 14 3 0 0 -6 -6 -13z m55 -2 c-1 -8
-8 -21 -16 -28 -10 -10 -11 -9 -4 3 5 8 9 18 10 23 3 14 4 17 8 17 2 0 3 -7 2
-15z m216 -17 c-6 -6 -16 -7 -22 -3 -9 6 -9 9 1 16 17 10 34 0 21 -13z m-1617
-7 c-9 -8 -36 -10 -30 -2 2 4 11 8 20 8 8 0 13 -3 10 -6z m-374 -24 c-1 -12
-15 -9 -19 4 -3 6 1 10 8 8 6 -3 11 -8 11 -12z m1792 -12 c4 -8 3 -16 -1 -19
-4 -3 -9 4 -9 15 -2 23 3 25 10 4z m267 9 c0 -8 -19 -13 -24 -6 -3 5 1 9 9 9
8 0 15 -2 15 -3z m-226 -48 c1 -10 9 -22 17 -27 8 -5 10 -9 4 -9 -19 0 -38 18
-31 29 9 14 -7 14 -21 0 -8 -8 -13 -7 -18 3 -5 7 -5 10 0 6 11 -11 36 12 28
26 -4 8 -3 8 6 0 7 -6 14 -19 15 -28z m-1718 -39 c12 -12 -26 -14 -42 -2 -16
11 -15 12 10 10 15 -2 30 -5 32 -8z m451 -804 c-3 -10 -5 -4 -5 12 0 17 2 24
5 18 2 -7 2 -21 0 -30z"/>
<path d="M8605 6478 c-10 -360 -3 -814 12 -811 8 2 10 -4 6 -14 -5 -11 -3 -14
6 -8 11 6 11 3 1 -16 -17 -33 -24 -38 -16 -14 3 11 1 27 -5 35 -9 12 -10 11
-6 -6 2 -12 1 -28 -4 -35 -7 -11 -9 -11 -9 3 0 18 -80 108 -95 108 -6 0 -2 -7
8 -14 16 -13 16 -14 1 -20 -9 -4 -19 -4 -22 -1 -3 3 0 5 8 5 9 0 10 3 1 13 -6
8 -8 16 -6 19 10 9 -46 40 -61 34 -8 -3 -12 -1 -9 4 7 12 -64 43 -82 36 -7 -3
-13 0 -13 5 0 7 -11 9 -25 7 -13 -3 -22 -2 -20 3 18 29 -384 19 -419 -11 -7
-5 -16 -7 -19 -3 -4 3 -13 1 -20 -5 -8 -7 -16 -9 -19 -7 -9 10 -58 -17 -51
-28 3 -6 1 -7 -5 -3 -6 4 -21 2 -33 -5 -18 -9 -19 -13 -8 -21 10 -7 8 -8 -8
-3 -12 3 -33 1 -45 -6 -34 -18 -69 -62 -62 -79 4 -12 3 -12 -7 -3 -10 10 -9
16 2 30 28 35 -45 -25 -103 -84 -45 -46 -56 -64 -54 -85 2 -15 -1 -25 -6 -22
-5 3 -7 13 -4 23 4 9 -2 5 -13 -9 -11 -13 -17 -29 -14 -34 3 -5 1 -6 -6 -2 -6
4 -14 0 -18 -11 -4 -10 -20 -39 -36 -65 -15 -26 -25 -53 -21 -59 5 -8 3 -9 -6
-4 -8 5 -11 3 -8 -6 3 -8 -2 -20 -9 -27 -8 -8 -11 -23 -8 -36 4 -13 3 -16 -2
-9 -11 15 -67 -161 -59 -182 3 -8 1 -15 -4 -17 -14 -5 -30 -174 -30 -314 0
-159 16 -292 39 -318 10 -12 11 -16 2 -11 -15 8 -12 -15 16 -118 12 -42 19
-55 25 -45 7 9 8 8 4 -6 -9 -25 12 -88 26 -80 6 4 8 2 4 -4 -9 -15 35 -103 47
-95 6 4 8 -1 4 -10 -3 -10 -3 -17 2 -17 5 0 11 -9 14 -21 3 -12 10 -18 16 -14
6 3 9 0 6 -7 -2 -7 14 -33 35 -57 36 -39 42 -42 57 -30 16 13 17 12 4 -4 -18
-23 0 -47 22 -29 11 9 14 8 14 -3 0 -8 -5 -12 -11 -9 -6 3 3 -6 19 -21 37 -32
105 -66 117 -59 4 3 7 0 6 -8 -2 -7 5 -12 15 -12 9 1 17 -2 17 -6 0 -11 94
-42 144 -47 149 -17 353 -12 341 8 -4 5 0 6 8 3 7 -2 27 1 43 7 29 12 38 15
62 17 7 1 11 6 8 11 -4 5 4 7 16 3 16 -4 19 -2 13 8 -5 8 -4 11 3 6 16 -10 64
15 58 31 -4 8 -1 11 5 7 14 -8 60 16 53 28 -3 4 2 8 10 8 19 0 48 29 41 41 -4
5 0 6 8 3 18 -6 41 21 31 38 -4 7 -4 10 1 6 11 -10 42 9 56 33 9 17 8 20 -3
13 -7 -4 1 6 17 22 17 16 31 29 32 29 5 -2 26 -160 25 -182 -1 -13 3 -23 9
-23 5 0 8 -4 5 -8 -3 -5 6 -24 19 -43 32 -48 76 -59 225 -59 117 0 122 1 117
20 -3 11 -2 20 1 20 4 0 6 670 4 1490 l-2 1490 -209 0 -209 0 -7 -242z m-678
-684 c-3 -3 -12 -4 -19 -1 -8 3 -5 6 6 6 11 1 17 -2 13 -5z m643 -154 c0 -5
-5 -10 -11 -10 -5 0 -7 5 -4 10 3 6 8 10 11 10 2 0 4 -4 4 -10z m-1038 -26
c-28 -22 -31 -28 -20 -43 12 -14 11 -15 -6 -1 -17 14 -17 15 13 42 17 15 35
28 39 28 4 0 -8 -12 -26 -26z m-61 -81 c12 -16 12 -17 -2 -6 -9 7 -20 9 -24 5
-5 -4 -5 -1 -1 6 9 16 11 15 27 -5z m36 2 c0 -8 -4 -12 -9 -9 -5 3 -6 10 -3
15 9 13 12 11 12 -6z m763 -50 c4 3 24 -2 43 -10 20 -8 44 -12 53 -8 11 4 15
3 11 -4 -4 -7 6 -16 24 -22 41 -14 155 -96 163 -116 3 -9 11 -13 16 -10 6 4 9
1 8 -6 -2 -8 6 -13 19 -14 12 0 25 -3 29 -7 3 -4 -2 -6 -12 -4 -18 4 -19 -11
-16 -482 2 -443 4 -488 20 -507 17 -20 17 -20 -4 -2 -20 16 -21 16 -37 -1 -12
-13 -14 -21 -6 -29 8 -8 7 -13 -2 -18 -8 -5 -10 -4 -5 3 4 7 2 12 -3 12 -6 0
-11 -7 -11 -16 0 -8 -4 -13 -8 -10 -11 6 -65 -48 -56 -56 3 -3 0 -9 -7 -14 -8
-4 -10 -3 -5 4 4 7 3 12 -2 12 -13 0 -43 -36 -36 -43 3 -3 -8 -14 -25 -25 -17
-10 -29 -21 -26 -24 3 -3 -9 -4 -26 -3 -17 1 -38 -5 -47 -14 -8 -9 -27 -16
-41 -17 -14 -1 -62 -6 -107 -13 -56 -8 -101 -9 -149 -2 -38 6 -71 8 -73 6 -2
-2 -24 7 -49 21 -25 13 -50 21 -56 17 -5 -3 -7 -1 -4 4 6 10 -19 28 -35 25 -4
-1 -10 7 -13 18 -4 11 -11 20 -16 20 -6 0 -7 -5 -3 -12 4 -7 3 -8 -4 -4 -6 4
-9 12 -7 19 5 15 -31 61 -43 53 -4 -2 -8 3 -9 12 0 9 -15 53 -32 97 -17 44
-31 88 -31 98 0 11 -4 15 -12 11 -7 -4 -8 -3 -4 4 4 6 2 49 -4 94 -13 97 -19
412 -7 395 4 -7 7 1 6 18 -1 17 6 61 15 98 9 37 14 72 11 77 -3 5 -1 11 5 15
15 9 51 98 45 112 -2 8 -1 11 4 8 16 -10 23 15 9 33 -12 15 -11 16 5 3 9 -7
17 -9 17 -5 0 22 115 125 169 152 33 16 58 31 56 33 -2 2 6 5 18 5 32 3 160
24 164 28 2 1 28 -1 59 -6 30 -5 59 -6 64 -3z m-400 -70 c0 -2 -6 -5 -13 -8
-8 -3 -14 1 -14 8 0 7 6 11 14 8 7 -3 13 -6 13 -8z m627 -2 c0 -9 -6 -9 -21
-1 -30 15 -30 16 -3 14 13 0 24 -6 24 -13z m38 -11 c-3 -3 -11 0 -18 7 -9 10
-8 11 6 5 10 -3 15 -9 12 -12z m12 -29 c0 -8 -6 -9 -19 -2 -10 5 -18 11 -18
12 0 2 8 3 18 3 10 0 19 -6 19 -13z m-1214 -30 c-4 -11 -3 -14 5 -9 8 5 10 2
5 -10 -5 -15 -7 -15 -15 0 -5 9 -6 21 -3 26 10 16 15 12 8 -7z m1251 -4 c-3
-5 -10 -7 -15 -3 -5 3 -7 10 -3 15 3 5 10 7 15 3 5 -3 7 -10 3 -15z m46 -1 c0
-6 -6 -5 -15 2 -8 7 -15 14 -15 16 0 2 7 1 15 -2 8 -4 15 -11 15 -16z m6
-1085 c-7 -7 -21 -4 -21 5 0 4 -4 14 -9 22 -6 9 -1 7 12 -4 12 -11 20 -21 18
-23z m-937 -45 c-5 -10 -11 -18 -12 -18 -2 0 -3 8 -3 18 0 10 6 19 13 19 8 0
9 -6 2 -19z m-352 -89 c0 -21 -3 -26 -9 -16 -4 9 -5 22 -2 31 9 23 11 20 11
-15z m1098 -19 c-3 -5 -12 -10 -18 -10 -7 0 -6 4 3 10 19 12 23 12 15 0z
m-520 -60 c3 -6 -1 -7 -9 -4 -18 7 -21 14 -7 14 6 0 13 -4 16 -10z m65 -10 c8
-5 11 -10 5 -10 -5 0 -17 5 -25 10 -8 5 -10 10 -5 10 6 0 17 -5 25 -10z m597
-12 c-3 -8 -6 -5 -6 6 -1 11 2 17 5 13 3 -3 4 -12 1 -19z m-540 6 c-3 -3 -12
-4 -19 -1 -8 3 -5 6 6 6 11 1 17 -2 13 -5z m-90 -10 c-3 -3 -12 -4 -19 -1 -8
3 -5 6 6 6 11 1 17 -2 13 -5z m-543 -41 c-5 -15 -3 -15 10 1 19 24 21 8 2 -17
-12 -16 -14 -16 -20 -1 -3 9 -4 20 0 25 9 15 14 10 8 -8z m1100 -85 c-3 -5
-12 -4 -20 3 -7 6 -11 15 -8 21 3 5 12 4 20 -3 7 -6 11 -15 8 -21z m-1000 13
c3 -5 -2 -15 -12 -22 -15 -12 -16 -12 -5 2 7 9 10 19 6 22 -3 4 -4 7 0 7 3 0
8 -4 11 -9z m1173 -63 c-3 -8 -6 -5 -6 6 -1 11 2 17 5 13 3 -3 4 -12 1 -19z
m-1097 -32 c-4 -4 -16 -4 -26 2 -16 9 -14 10 8 9 15 -1 23 -6 18 -11z m825 4
c-3 -5 -12 -10 -18 -10 -7 0 -6 4 3 10 19 12 23 12 15 0z m-785 -20 c0 -5 -2
-10 -4 -10 -3 0 -8 5 -11 10 -3 6 -1 10 4 10 6 0 11 -4 11 -10z m112 -47 c-6
-2 -10 -9 -7 -14 4 -5 -1 -6 -10 -2 -13 5 -14 7 -3 14 7 5 18 8 23 8 6 0 4 -3
-3 -6z m371 -40 c-7 -2 -19 -2 -25 0 -7 3 -2 5 12 5 14 0 19 -2 13 -5z"/>
<path d="M8400 4119 l-25 -20 33 16 c17 8 32 18 32 20 0 10 -16 4 -40 -16z"/>
<path d="M1032 5782 c7 -9 18 -20 23 -24 6 -4 10 -11 11 -15 2 -19 17 -43 26
-43 6 0 4 8 -3 18 -13 15 -12 16 3 4 9 -8 14 -20 11 -28 -3 -8 0 -21 7 -30 11
-12 15 -12 23 -2 6 9 7 8 3 -5 -7 -21 17 -61 29 -49 5 4 5 1 1 -5 -4 -7 11
-39 34 -73 36 -53 44 -60 58 -49 14 11 15 11 5 -1 -16 -18 -17 -34 -1 -24 6 4
8 3 5 -3 -9 -14 77 -145 88 -135 5 4 5 2 1 -5 -4 -7 1 -20 11 -30 10 -10 24
-31 32 -45 8 -15 19 -25 24 -21 6 3 7 1 3 -5 -8 -13 79 -143 90 -134 4 4 4 2
1 -4 -8 -13 57 -106 68 -96 5 4 5 2 1 -5 -8 -14 61 -119 76 -115 5 1 7 -2 3
-8 -3 -5 3 -23 14 -39 25 -35 26 -45 6 -61 -8 -7 -13 -16 -10 -20 3 -5 2 -10
-2 -12 -5 -1 -21 -21 -37 -42 -16 -22 -23 -36 -15 -31 8 4 1 -6 -15 -23 -15
-17 -25 -35 -21 -41 3 -7 1 -10 -6 -9 -6 2 -14 -3 -17 -11 -3 -9 0 -11 8 -6 9
5 11 4 6 -4 -4 -6 -11 -9 -16 -6 -4 3 -13 -2 -20 -10 -10 -12 -10 -19 1 -32
13 -16 12 -17 -3 -4 -16 12 -22 9 -19 -11 0 -5 -3 -8 -7 -8 -5 0 -21 -21 -36
-47 -15 -27 -42 -68 -61 -93 -18 -25 -31 -52 -29 -62 4 -15 -11 -32 -28 -33
-5 0 -7 -2 -6 -5 1 -3 -10 -18 -25 -34 -15 -16 -24 -32 -22 -37 3 -4 1 -10 -5
-14 -21 -13 -90 -127 -83 -138 3 -7 3 -9 -2 -5 -14 13 -37 -13 -25 -27 8 -10
6 -13 -6 -11 -9 0 -24 -12 -33 -29 -9 -16 -29 -48 -44 -70 -27 -40 -35 -61
-18 -50 5 3 12 1 16 -4 3 -6 -5 -8 -19 -5 -25 4 -44 -20 -24 -32 6 -4 8 -3 5
3 -3 5 2 9 11 8 9 0 17 -5 17 -10 0 -6 -4 -9 -9 -7 -4 1 -15 -3 -24 -10 -12
-10 -14 -10 -8 0 4 6 3 12 -3 12 -8 0 -34 -31 -54 -67 -10 -16 348 -18 389 -3
40 16 85 66 77 86 -4 11 -2 15 4 11 6 -4 18 2 28 13 10 11 14 20 9 20 -5 0 -1
7 10 15 10 7 15 19 11 25 -4 6 -1 17 5 25 6 8 9 18 6 23 -3 5 1 9 9 9 13 0 13
-4 -1 -25 -8 -13 -14 -26 -12 -28 8 -8 88 118 82 128 -4 6 -2 8 3 5 15 -10 26
23 13 38 -9 10 -7 12 8 8 15 -4 28 7 51 41 18 26 29 52 25 59 -4 6 -4 9 1 5
17 -16 88 90 79 118 -4 14 -3 15 3 6 8 -10 16 -5 36 22 29 37 34 52 15 40 -7
-4 -8 -3 -4 5 4 6 11 9 15 7 13 -8 114 151 109 172 -8 29 21 23 37 -8 16 -31
49 -63 40 -37 -4 8 -2 17 3 21 10 6 9 -24 -1 -41 -4 -7 0 -16 10 -22 10 -5 18
-15 18 -23 0 -21 127 -228 136 -222 5 3 6 -1 3 -9 -6 -16 23 -50 36 -42 5 3
11 1 15 -4 3 -6 -4 -8 -17 -6 -22 4 -23 4 -3 -11 11 -8 25 -12 32 -10 7 3 15
1 18 -4 3 -4 -6 -7 -19 -6 -23 3 -23 2 -7 -25 8 -15 20 -25 25 -22 5 4 6 1 2
-6 -5 -7 -1 -20 7 -29 7 -9 17 -26 21 -37 6 -16 9 -17 17 -5 9 12 10 12 5 -3
-3 -10 -1 -28 5 -39 11 -21 12 -21 25 3 7 13 13 20 14 16 0 -5 -4 -17 -10 -27
-8 -15 -2 -32 26 -79 20 -34 41 -58 47 -54 6 3 7 1 3 -6 -4 -6 0 -23 9 -37 12
-19 22 -23 38 -19 15 4 18 3 9 -3 -11 -7 -10 -11 0 -20 17 -13 13 -13 222 -18
123 -2 174 0 185 9 11 9 13 9 8 0 -5 -8 0 -11 13 -10 18 1 18 3 5 22 -8 11
-28 43 -45 72 -24 40 -35 51 -51 48 -17 -3 -19 -2 -9 10 9 11 3 27 -31 79 -24
35 -48 62 -53 59 -5 -4 -6 -1 -2 6 7 11 -26 68 -49 83 -5 4 -6 8 -1 8 5 0 3 6
-3 14 -7 8 -21 13 -32 11 -11 -2 -17 0 -14 6 4 5 11 6 17 3 18 -11 4 18 -43
90 -30 45 -46 62 -52 53 -6 -8 -7 -6 -3 6 6 20 -51 110 -65 102 -4 -3 -5 5 -1
17 3 14 2 19 -6 14 -7 -4 -12 -1 -12 9 0 10 -5 13 -12 9 -6 -4 -8 -3 -4 4 8
13 -42 88 -56 84 -5 -1 -7 2 -4 7 8 13 -28 73 -38 64 -4 -4 -4 1 0 12 6 14 4
17 -9 12 -12 -4 -14 -2 -10 10 5 12 3 14 -7 8 -8 -5 -11 -4 -6 3 8 14 -54 113
-67 105 -6 -4 -7 -1 -3 6 5 7 0 21 -10 32 -15 17 -16 23 -6 40 7 11 10 25 6
31 -4 7 -3 8 4 4 6 -4 16 4 23 16 6 13 20 33 31 45 12 13 17 27 12 35 -4 7 -4
10 1 6 4 -4 17 5 30 20 28 34 99 144 100 155 0 4 6 12 14 16 8 5 10 14 6 21
-5 8 -4 11 2 7 6 -4 31 23 55 61 69 104 69 104 136 202 34 50 59 96 56 102 -4
6 -3 8 2 5 5 -3 31 25 57 63 46 67 56 87 38 75 -5 -3 -12 -1 -15 4 -4 5 2 8
11 7 22 -4 47 20 37 35 -4 7 -3 9 3 6 14 -9 46 40 37 55 -4 6 -3 8 4 4 6 -3
13 -2 17 3 4 7 -67 10 -195 10 l-202 0 -45 -45 c-26 -26 -42 -51 -39 -59 3 -8
0 -12 -7 -10 -7 2 -25 -16 -40 -41 -22 -34 -26 -48 -18 -58 6 -7 8 -22 4 -31
-4 -13 -3 -16 5 -11 17 10 15 1 -2 -13 -12 -10 -14 -7 -11 18 5 35 -7 47 -25
26 -7 -8 -10 -15 -7 -15 3 0 -5 -12 -18 -26 -25 -27 -29 -59 -11 -84 10 -13 9
-13 -7 -1 -10 8 -15 21 -12 30 8 21 -2 9 -49 -56 -21 -30 -34 -58 -30 -64 5
-8 3 -9 -6 -4 -10 6 -12 4 -7 -9 4 -9 3 -15 -2 -12 -13 8 -34 -21 -25 -35 4
-7 3 -9 -3 -6 -14 9 -46 -40 -37 -55 4 -7 3 -8 -4 -4 -6 4 -16 -4 -23 -16 -7
-13 -30 -46 -51 -74 -23 -30 -36 -58 -33 -67 4 -8 2 -18 -4 -22 -7 -4 -9 1 -5
12 5 16 4 16 -10 -2 -9 -11 -14 -25 -12 -32 3 -7 1 -13 -4 -13 -5 0 -7 -13 -5
-28 2 -19 -1 -29 -10 -29 -7 0 -11 7 -8 14 9 22 -28 82 -46 76 -12 -4 -13 -3
-3 5 11 7 8 16 -11 45 -14 20 -28 33 -32 29 -5 -4 -5 -1 -1 6 5 7 2 21 -7 30
-7 9 -17 25 -20 35 -4 11 -12 15 -18 11 -7 -4 -9 -3 -5 4 3 6 -2 25 -13 42
-10 18 -21 28 -23 23 -3 -4 -3 -2 -2 4 4 15 -27 73 -38 73 -4 0 -14 16 -23 36
-8 19 -19 33 -25 29 -6 -4 -7 1 -3 11 5 13 3 15 -7 9 -9 -5 -11 -4 -6 4 9 14
-41 94 -53 86 -5 -3 -7 3 -4 13 2 10 -3 24 -11 31 -9 8 -16 19 -16 27 0 7 -5
16 -12 20 -7 5 -8 3 -3 -6 6 -9 4 -11 -4 -6 -7 5 -10 14 -7 21 5 14 -17 39
-26 30 -2 -3 -4 5 -4 18 1 14 -4 21 -13 19 -8 -2 -11 3 -8 11 3 8 -9 28 -27
46 -33 32 -52 41 -41 19 4 -7 0 -5 -8 5 -13 16 -34 18 -221 17 -192 -1 -206
-3 -194 -18z m1849 -35 c-10 -9 -11 -8 -5 6 3 10 9 15 12 12 3 -3 0 -11 -7
-18z m-1766 1 c4 -3 2 -9 -3 -12 -5 -3 -15 1 -21 8 -10 11 -9 14 3 12 9 -1 18
-5 21 -8z m441 -118 c0 -10 -6 -17 -13 -16 -17 3 -26 13 -19 24 9 15 32 9 32
-8z m1204 -52 c0 -5 -5 -6 -12 -2 -8 5 -9 2 -5 -10 4 -9 3 -15 -2 -11 -15 9
-9 44 6 38 7 -3 13 -9 13 -15z m-1120 -69 c0 -15 -18 -19 -23 -6 -3 8 1 14 9
14 8 0 14 -4 14 -8z m30 -29 c0 -5 -2 -10 -4 -10 -3 0 -8 5 -11 10 -3 6 -1 10
4 10 6 0 11 -4 11 -10z m1010 -36 c0 -8 -19 -13 -24 -6 -3 5 1 9 9 9 8 0 15
-2 15 -3z m-1359 -41 c-12 -20 -14 -14 -5 12 4 9 9 14 11 11 3 -2 0 -13 -6
-23z m1273 -61 c3 -5 -1 -9 -9 -9 -8 0 -12 4 -9 9 3 4 7 8 9 8 2 0 6 -4 9 -8z
m-14 -42 c-6 -11 -13 -20 -16 -20 -2 0 0 9 6 20 6 11 13 20 16 20 2 0 0 -9 -6
-20z m-26 -28 c3 -5 -1 -9 -9 -9 -8 0 -12 4 -9 9 3 4 7 8 9 8 2 0 6 -4 9 -8z
m-1133 -34 c-10 -11 -11 -9 -5 6 6 15 4 17 -6 11 -9 -6 -11 -4 -5 4 5 9 10 10
18 2 8 -8 7 -14 -2 -23z m1082 -15 c-5 -11 -3 -14 6 -8 10 6 11 3 2 -14 -13
-24 -17 -25 -27 -9 -5 7 -3 8 6 3 10 -6 12 -4 7 9 -4 10 -5 22 -1 27 9 15 14
10 7 -8z m-429 -101 c3 -5 -1 -9 -9 -9 -8 0 -12 4 -9 9 3 4 7 8 9 8 2 0 6 -4
9 -8z m362 -14 c5 -7 3 -8 -6 -3 -10 6 -12 4 -6 -11 5 -14 4 -16 -5 -7 -6 6
-8 16 -5 22 9 14 13 14 22 -1z m-49 -83 c0 -8 -4 -12 -9 -9 -5 3 -6 10 -3 15
9 13 12 11 12 -6z m-806 -27 c-10 -11 -11 -9 -5 6 6 15 4 17 -6 11 -9 -6 -11
-4 -5 4 5 9 10 10 18 2 8 -8 7 -14 -2 -23z m781 -18 c-9 -11 -17 -20 -17 -20
0 0 -1 9 -1 19 0 11 4 17 8 15 4 -3 8 0 8 6 0 6 4 9 10 5 5 -3 2 -14 -8 -25z
m-403 -443 c-2 -1 -12 -9 -22 -16 -15 -12 -17 -12 -11 3 3 9 13 16 22 16 8 0
13 -1 11 -3z m-84 -136 c-9 -16 -25 -3 -18 15 4 10 9 12 15 6 6 -6 7 -15 3
-21z m265 -56 c0 -5 -5 -3 -10 5 -5 8 -10 20 -10 25 0 6 5 3 10 -5 5 -8 10
-19 10 -25z m-724 -37 c-9 -12 -16 -19 -16 -15 0 11 24 47 28 42 2 -2 -3 -14
-12 -27z m796 -73 c-8 -16 -9 -16 -15 -1 -4 10 -3 15 3 11 6 -3 10 -1 10 6 0
7 3 10 6 6 3 -3 2 -13 -4 -22z m382 -31 c3 -8 2 -12 -4 -9 -6 3 -10 10 -10 16
0 14 7 11 14 -7z m-1254 -30 c0 -8 -19 -13 -24 -6 -3 5 1 9 9 9 8 0 15 -2 15
-3z m-67 -111 c-3 -7 -6 -13 -8 -13 -2 0 -5 6 -8 13 -3 8 1 14 8 14 7 0 11 -6
8 -14z m351 -21 c3 -5 -1 -9 -9 -9 -8 0 -12 4 -9 9 3 4 7 8 9 8 2 0 6 -4 9 -8z
m-30 -50 c3 -5 -1 -9 -9 -9 -8 0 -12 4 -9 9 3 4 7 8 9 8 2 0 6 -4 9 -8z m-400
-61 c-8 -8 -34 -10 -38 -2 -3 4 6 7 19 7 14 0 22 -2 19 -5z m-70 -69 c3 -5 -1
-9 -9 -9 -8 0 -12 4 -9 9 3 4 7 8 9 8 2 0 6 -4 9 -8z m1789 -133 c-8 -8 -13
-7 -18 2 -5 8 -4 10 3 5 17 -11 15 4 -5 28 -15 18 -14 18 7 -1 18 -17 21 -26
13 -34z"/>
<path d="M5600 5482 c26 -35 46 -46 56 -31 7 12 -16 39 -37 42 -8 2 -20 6 -28
11 -7 5 -3 -5 9 -22z m45 -22 c3 -6 -1 -7 -9 -4 -18 7 -21 14 -7 14 6 0 13 -4
16 -10z"/>
<path d="M1367 4273 c-4 -3 -7 -11 -7 -17 0 -6 5 -5 12 2 6 6 9 14 7 17 -3 3
-9 2 -12 -2z"/>
</g>
</svg>
